<?xml version="1.0" standalone="no"?>
<!DOCTYPE svg PUBLIC "-//W3C//DTD SVG 20010904//EN"
 "http://www.w3.org/TR/2001/REC-SVG-20010904/DTD/svg10.dtd">
<svg version="1.0" xmlns="http://www.w3.org/2000/svg"
 width="512.000000pt" height="512.000000pt" viewBox="0 0 512.000000 512.000000"
 preserveAspectRatio="xMidYMid meet">

<g transform="translate(0.000000,512.000000) scale(0.100000,-0.100000)"
fill="#000000" stroke="none">
<path d="M2370 5114 c-19 -2 -78 -9 -130 -15 -791 -90 -1522 -586 -1924 -1305
-146 -262 -252 -588 -297 -914 -18 -125 -18 -515 0 -640 105 -762 511 -1409
1146 -1826 840 -552 1956 -550 2797 4 1266 835 1539 2571 591 3747 -409 507
-974 829 -1633 930 -100 15 -472 28 -550 19z m545 -343 c628 -106 1158 -448
1511 -977 179 -267 296 -573 351 -909 24 -153 24 -497 0 -650 -108 -668 -474
-1222 -1042 -1580 -243 -153 -537 -261 -850 -312 -154 -24 -497 -24 -650 1
-658 107 -1197 455 -1557 1006 -168 257 -281 557 -335 885 -24 153 -24 497 0
650 81 497 291 912 636 1255 382 381 862 605 1401 654 108 10 418 -4 535 -23z"/>
<path d="M2495 4146 c-74 -34 -95 -83 -95 -221 l0 -103 -67 -21 c-89 -27 -180
-82 -263 -158 -243 -225 -299 -597 -133 -883 21 -36 74 -101 118 -145 139
-139 270 -197 487 -214 109 -9 130 -14 194 -45 86 -43 144 -103 187 -194 29
-61 32 -76 32 -162 0 -86 -3 -101 -32 -162 -44 -93 -100 -151 -191 -196 -72
-35 -81 -37 -171 -37 -87 0 -102 3 -161 31 -142 68 -222 182 -239 343 -10 88
-24 117 -75 155 -20 16 -42 21 -86 21 -63 0 -95 -16 -133 -67 -59 -79 -12
-322 94 -484 81 -125 235 -244 371 -285 l66 -20 4 -119 c3 -128 11 -149 72
-194 39 -29 133 -29 172 0 61 45 69 66 72 192 l4 117 78 28 c302 107 499 408
477 728 -13 177 -81 323 -212 454 -139 139 -270 197 -487 214 -109 9 -130 14
-194 45 -86 43 -144 103 -187 194 -29 61 -32 76 -32 163 0 90 2 99 37 171 45
91 103 147 196 191 61 29 76 32 162 32 86 0 101 -3 162 -32 139 -66 220 -182
237 -342 10 -88 24 -117 75 -155 39 -29 133 -29 172 0 69 51 85 112 64 242
-43 266 -234 494 -482 574 l-66 21 -4 118 c-3 127 -11 148 -70 192 -34 25
-113 32 -153 13z"/>
</g>
</svg>
