<?xml version="1.0" standalone="no"?>
<!DOCTYPE svg PUBLIC "-//W3C//DTD SVG 20010904//EN"
 "http://www.w3.org/TR/2001/REC-SVG-20010904/DTD/svg10.dtd">
<svg version="1.0" xmlns="http://www.w3.org/2000/svg"
 width="512.000000pt" height="512.000000pt" viewBox="0 0 512.000000 512.000000"
 preserveAspectRatio="xMidYMid meet">

<g transform="translate(0.000000,512.000000) scale(0.100000,-0.100000)"
fill="#000000" stroke="none">
<path d="M752 4368 l-112 -113 1606 -1613 c884 -887 1605 -1614 1603 -1616 -2
-2 -438 -18 -968 -35 -531 -17 -965 -32 -966 -34 -1 -1 0 -73 3 -161 l4 -158
157 6 c86 4 584 20 1106 36 1150 35 1087 32 1134 63 73 48 66 -28 116 1262 25
643 44 1169 43 1170 -2 1 -73 5 -159 9 l-156 7 -6 -103 c-3 -57 -21 -490 -38
-963 -18 -473 -34 -862 -37 -865 -2 -3 -727 721 -1611 1608 l-1606 1613 -113
-113z"/>
</g>
</svg>
