<?xml version="1.0" standalone="no"?>
<!DOCTYPE svg PUBLIC "-//W3C//DTD SVG 20010904//EN"
 "http://www.w3.org/TR/2001/REC-SVG-20010904/DTD/svg10.dtd">
<svg version="1.0" xmlns="http://www.w3.org/2000/svg"
 width="512.000000pt" height="512.000000pt" viewBox="0 0 512.000000 512.000000"
 preserveAspectRatio="xMidYMid meet">

<g transform="translate(0.000000,512.000000) scale(0.100000,-0.100000)"
fill="#000000" stroke="none">
<path d="M1708 3733 l-3 -958 -212 -3 -213 -2 0 -210 0 -210 213 -2 212 -3 3
-212 2 -213 -215 0 -215 0 0 -215 0 -215 215 0 215 0 0 -530 0 -530 210 0 210
0 0 530 0 530 635 0 635 0 0 215 0 215 -635 0 -635 0 2 213 3 212 575 5 575 6
98 26 c210 58 390 161 537 308 135 135 231 292 288 470 42 133 56 226 56 365
-2 536 -354 988 -881 1133 l-98 27 -787 3 -788 3 -2 -958z m1575 509 c264 -73
472 -287 538 -552 18 -71 18 -269 0 -340 -52 -211 -201 -399 -391 -494 -159
-80 -171 -81 -770 -81 l-525 0 -3 735 c-1 404 0 741 3 748 4 11 104 13 537 10
510 -4 536 -5 611 -26z"/>
</g>
</svg>
